<svg xmlns="http://www.w3.org/2000/svg" xmlns:xlink="http://www.w3.org/1999/xlink" contentStyleType="text/css" data-diagram-type="CLASS" height="246px" preserveAspectRatio="none" style="width:652px;height:246px;background:#FFFFFF;" version="1.1" viewBox="0 0 652 246" width="652px" zoomAndPan="magnify"><?plantuml 1.2026.3beta6?><defs/><g><g class="title" data-source-line="1"><text fill="#000000" font-family="sans-serif" font-size="14" font-weight="700" lengthAdjust="spacing" textLength="102.8125" x="271.234" y="22.9951">Colaboraci&#243;n</text></g><g class="entity" data-qualified-name="Usuario" data-source-line="5" id="ent0002"><rect fill="#F1F1F1" height="31.6406" rx="2.5" ry="2.5" style="stroke:#181818;stroke-width:0.5;" width="52.0029" x="7" y="119.4769"/><text fill="#000000" font-family="sans-serif" font-size="10" lengthAdjust="spacing" textLength="38.0029" x="14" y="130.7591">Usuario</text><line style="stroke:#181818;stroke-width:0.5;" x1="8" x2="58.0029" y1="135.1175" y2="135.1175"/></g><g class="entity" data-qualified-name="Bot" data-source-line="6" id="ent0003"><rect fill="#F1F1F1" height="31.6406" rx="2.5" ry="2.5" style="stroke:#181818;stroke-width:0.5;" width="30.8994" x="168.55" y="119.4769"/><text fill="#000000" font-family="sans-serif" font-size="10" lengthAdjust="spacing" textLength="16.8994" x="175.55" y="130.7591">Bot</text><line style="stroke:#181818;stroke-width:0.5;" x1="169.55" x2="198.4494" y1="135.1175" y2="135.1175"/></g><g class="entity" data-qualified-name="Sistema" data-source-line="7" id="ent0004"><rect fill="#F1F1F1" height="31.6406" rx="2.5" ry="2.5" style="stroke:#181818;stroke-width:0.5;" width="54.2783" x="450.86" y="119.4769"/><text fill="#000000" font-family="sans-serif" font-size="10" lengthAdjust="spacing" textLength="40.2783" x="457.86" y="130.7591">Sistema</text><line style="stroke:#181818;stroke-width:0.5;" x1="451.86" x2="504.1383" y1="135.1175" y2="135.1175"/></g><g class="entity" data-qualified-name="DB" data-source-line="8" id="ent0005"><rect fill="#F1F1F1" height="31.6406" rx="2.5" ry="2.5" style="stroke:#181818;stroke-width:0.5;" width="28.5605" x="609.72" y="119.4769"/><text fill="#000000" font-family="sans-serif" font-size="10" lengthAdjust="spacing" textLength="14.5605" x="616.72" y="130.7591">DB</text><line style="stroke:#181818;stroke-width:0.5;" x1="610.72" x2="637.2805" y1="135.1175" y2="135.1175"/></g><g class="entity" data-qualified-name="Operador" data-source-line="9" id="ent0006"><rect fill="#F1F1F1" height="31.6406" rx="2.5" ry="2.5" style="stroke:#181818;stroke-width:0.5;" width="61.1875" x="291.41" y="119.4769"/><text fill="#000000" font-family="sans-serif" font-size="10" lengthAdjust="spacing" textLength="47.1875" x="298.41" y="130.7591">Operador</text><line style="stroke:#181818;stroke-width:0.5;" x1="292.41" x2="351.5975" y1="135.1175" y2="135.1175"/></g><!--link Usuario to Bot--><g class="link" data-entity-1="ent0002" data-entity-2="ent0003" data-link-type="dependency" data-source-line="11" id="lnk7"><path codeLine="11" d="M47.8,119.0669 C55.49,111.8369 65.53,104.1069 76.28,100.2969 C91.99,94.7469 135.99,93.6669 151.28,100.2969 C160.28,104.2069 164.2432,107.221 169.8832,114.431" fill="none" id="Usuario-to-Bot" style="stroke:#181818;stroke-width:1;"/><polygon fill="#181818" points="173.58,119.1569,171.1854,109.6036,170.4993,115.2187,164.8842,114.5326,173.58,119.1569" style="stroke:#181818;stroke-width:1;"/><text fill="#000000" font-family="sans-serif" font-size="10" lengthAdjust="spacing" textLength="55.7568" x="86.28" y="91.5791">1. Init conv</text></g><!--link Bot to Usuario--><g class="link" data-entity-1="ent0003" data-entity-2="ent0002" data-link-type="dependency" data-source-line="12" id="lnk8"><path codeLine="12" d="M181.45,151.4069 C177.73,168.8569 168.97,195.8569 149.28,208.2969 C142.61,212.5169 85.17,212.1369 78.28,208.2969 C56.65,196.2669 46.0246,174.8056 39.8246,157.2156" fill="none" id="Bot-to-Usuario" style="stroke:#181818;stroke-width:1;"/><polygon fill="#181818" points="37.83,151.5569,37.0493,161.3747,39.4921,156.2725,44.5944,158.7153,37.83,151.5569" style="stroke:#181818;stroke-width:1;"/><text fill="#000000" font-family="sans-serif" font-size="10" lengthAdjust="spacing" textLength="39.585" x="94.28" y="205.5791">2. Aviso</text></g><!--link Usuario to Bot--><g class="link" data-entity-1="ent0002" data-entity-2="ent0003" data-link-type="dependency" data-source-line="13" id="lnk9"><path codeLine="13" d="M35.63,151.4169 C40.12,173.0469 51.53,210.6469 78.28,227.2969 C84.97,231.4669 142.79,231.7869 149.28,227.2969 C162.13,218.4169 172.9062,181.0506 178.8362,157.1306" fill="none" id="Usuario-to-Bot-1" style="stroke:#181818;stroke-width:1;"/><polygon fill="#181818" points="180.28,151.3069,174.2319,159.0799,179.0769,156.16,181.9968,161.0049,180.28,151.3069" style="stroke:#181818;stroke-width:1;"/><text fill="#000000" font-family="sans-serif" font-size="10" lengthAdjust="spacing" textLength="32.9053" x="97.78" y="224.5791">3. Msg</text></g><!--link Bot to Usuario--><g class="link" data-entity-1="ent0003" data-entity-2="ent0002" data-link-type="dependency" data-source-line="18" id="lnk11"><path codeLine="18" d="M172.74,151.4669 C166.71,158.6769 158.6,166.4169 149.28,170.2969 C134.71,176.3669 93.21,175.3969 78.28,170.2969 C67.18,166.5169 61.1713,162.7778 53.0913,155.5478" fill="none" id="Bot-to-Usuario-1" style="stroke:#181818;stroke-width:1;"/><polygon fill="#181818" points="48.62,151.5469,52.6597,160.5291,52.3461,154.881,57.9942,154.5674,48.62,151.5469" style="stroke:#181818;stroke-width:1;"/><text fill="#000000" font-family="sans-serif" font-size="10" lengthAdjust="spacing" textLength="63.0713" x="82.28" y="167.5791">6. Req datos</text></g><!--link Usuario to Bot--><g class="link" data-entity-1="ent0002" data-entity-2="ent0003" data-link-type="dependency" data-source-line="19" id="lnk12"><path codeLine="19" d="M40.76,119.2069 C47.97,106.2969 60.03,89.0969 76.28,81.2969 C91.3,74.0869 136.76,73.1169 151.28,81.2969 C165.51,89.3169 172.1403,100.6838 176.9703,113.4738" fill="none" id="Usuario-to-Bot-2" style="stroke:#181818;stroke-width:1;"/><polygon fill="#181818" points="179.09,119.0869,179.6525,109.2541,177.3236,114.4093,172.1684,112.0804,179.09,119.0869" style="stroke:#181818;stroke-width:1;"/><text fill="#000000" font-family="sans-serif" font-size="10" lengthAdjust="spacing" textLength="41.7969" x="93.28" y="72.5791">7. Datos</text></g><!--link Bot to Usuario--><g class="link" data-entity-1="ent0003" data-entity-2="ent0002" data-link-type="dependency" data-source-line="26" id="lnk15"><path codeLine="26" d="M168.26,144.2969 C162.48,147.1269 155.76,149.8769 149.28,151.2969 C118.45,158.0569 109.38,156.6369 78.28,151.2969 C72.03,150.2269 71.1918,150.315 65.0918,148.245" fill="none" id="Bot-to-Usuario-2" style="stroke:#181818;stroke-width:1;"/><polygon fill="#181818" points="59.41,146.3169,66.6473,152.9968,64.1448,147.9236,69.218,145.4211,59.41,146.3169" style="stroke:#181818;stroke-width:1;"/><text fill="#000000" font-family="sans-serif" font-size="10" lengthAdjust="spacing" textLength="69.0234" x="79.28" y="148.5791">12. Resultado</text></g><!--link Usuario to Bot--><g class="link" data-entity-1="ent0002" data-entity-2="ent0003" data-link-type="dependency" data-source-line="28" id="lnk16"><path codeLine="28" d="M59.3,135.2969 C90.74,135.2969 136.32,135.2969 162.18,135.2969" fill="none" id="Usuario-to-Bot-3" style="stroke:#181818;stroke-width:1;"/><polygon fill="#181818" points="168.18,135.2969,159.18,131.2969,163.18,135.2969,159.18,139.2969,168.18,135.2969" style="stroke:#181818;stroke-width:1;"/><text fill="#000000" font-family="sans-serif" font-size="10" lengthAdjust="spacing" textLength="73.0469" x="77.28" y="129.5791">13. Inscripci&#243;n</text></g><!--link Bot to Usuario--><g class="link" data-entity-1="ent0003" data-entity-2="ent0002" data-link-type="dependency" data-source-line="35" id="lnk20"><path codeLine="35" d="M168.23,125.7969 C163.02,123.1569 157.07,120.6369 151.28,119.2969 C118.8,111.7869 109.09,113.4269 76.28,119.2969 C70.6,120.3169 70.3582,120.0593 64.7982,121.9893" fill="none" id="Bot-to-Usuario-3" style="stroke:#181818;stroke-width:1;"/><polygon fill="#181818" points="59.13,123.9569,68.944,124.7843,63.8535,122.3172,66.3206,117.2267,59.13,123.9569" style="stroke:#181818;stroke-width:1;"/><text fill="#000000" font-family="sans-serif" font-size="10" lengthAdjust="spacing" textLength="66.6504" x="80.78" y="110.5791">18. Req pago</text></g><!--link Usuario to Bot--><g class="link" data-entity-1="ent0002" data-entity-2="ent0003" data-link-type="dependency" data-source-line="36" id="lnk21"><path codeLine="36" d="M41.31,151.4169 C48.96,164.3369 61.65,181.5469 78.28,189.2969 C92.58,195.9769 135.43,196.8569 149.28,189.2969 C163.85,181.3469 170.9435,169.9041 176.2235,157.0941" fill="none" id="Usuario-to-Bot-4" style="stroke:#181818;stroke-width:1;"/><polygon fill="#181818" points="178.51,151.5469,171.3821,158.3435,176.6046,156.1696,178.7785,161.3921,178.51,151.5469" style="stroke:#181818;stroke-width:1;"/><text fill="#000000" font-family="sans-serif" font-size="10" lengthAdjust="spacing" textLength="48.2715" x="89.78" y="186.5791">19. Comp</text></g><!--link Bot to Usuario--><g class="link" data-entity-1="ent0003" data-entity-2="ent0002" data-link-type="dependency" data-source-line="42" id="lnk25"><path codeLine="42" d="M181.89,119.2269 C178.64,101.8069 170.63,74.8369 151.28,62.2969 C144.28,57.7669 83.52,58.1769 76.28,62.2969 C55.03,74.4069 45.0013,95.8029 39.2713,113.3629" fill="none" id="Bot-to-Usuario-4" style="stroke:#181818;stroke-width:1;"/><polygon fill="#181818" points="37.41,119.0669,44.0046,111.7517,38.9611,114.3135,36.3992,109.27,37.41,119.0669" style="stroke:#181818;stroke-width:1;"/><text fill="#000000" font-family="sans-serif" font-size="10" lengthAdjust="spacing" textLength="33.5107" x="97.28" y="53.5791">23. OK</text></g><!--link Sistema to DB--><g class="link" data-entity-1="ent0004" data-entity-2="ent0005" data-link-type="dependency" data-source-line="16" id="lnk10"><path codeLine="16" d="M493.27,119.0669 C501.19,111.8269 511.48,104.0969 522.43,100.2969 C537.13,95.2069 578.22,93.9769 592.43,100.2969 C601.25,104.2269 605.0489,107.1677 610.4589,114.3777" fill="none" id="Sistema-to-DB" style="stroke:#181818;stroke-width:1;"/><polygon fill="#181818" points="614.06,119.1769,611.8579,109.5774,611.0591,115.1775,605.4589,114.3788,614.06,119.1769" style="stroke:#181818;stroke-width:1;"/><text fill="#000000" font-family="sans-serif" font-size="10" lengthAdjust="spacing" textLength="37.2656" x="538.93" y="91.5791">5. Save</text></g><!--link Sistema to DB--><g class="link" data-entity-1="ent0004" data-entity-2="ent0005" data-link-type="dependency" data-source-line="22" id="lnk13"><path codeLine="22" d="M488.64,151.4969 C498.21,164.4569 513.57,181.6869 531.93,189.2969 C542.4,193.6469 572.78,194.3369 582.93,189.2969 C598.76,181.4569 607.3695,169.589 614.0795,156.699" fill="none" id="Sistema-to-DB-1" style="stroke:#181818;stroke-width:1;"/><polygon fill="#181818" points="616.85,151.3769,609.1463,157.513,614.5413,155.8119,616.2424,161.207,616.85,151.3769" style="stroke:#181818;stroke-width:1;"/><text fill="#000000" font-family="sans-serif" font-size="10" lengthAdjust="spacing" textLength="37.2656" x="538.93" y="186.5791">9. Save</text></g><!--link Sistema to DB--><g class="link" data-entity-1="ent0004" data-entity-2="ent0005" data-link-type="dependency" data-source-line="24" id="lnk14"><path codeLine="24" d="M497.11,151.5869 C506.86,158.8369 519.3,166.5669 531.93,170.2969 C553.67,176.7369 561.66,178.1369 582.93,170.2969 C593.3,166.4769 598.5857,162.9778 605.8557,155.7478" fill="none" id="Sistema-to-DB-2" style="stroke:#181818;stroke-width:1;"/><polygon fill="#181818" points="610.11,151.5169,600.9079,155.027,606.5647,155.0426,606.5491,160.6995,610.11,151.5169" style="stroke:#181818;stroke-width:1;"/><text fill="#000000" font-family="sans-serif" font-size="10" lengthAdjust="spacing" textLength="40.2246" x="537.43" y="167.5791">11. Eval</text></g><!--link Sistema to DB--><g class="link" data-entity-1="ent0004" data-entity-2="ent0005" data-link-type="dependency" data-source-line="30" id="lnk17"><path codeLine="30" d="M505.37,145.0869 C513.78,147.6369 523.14,150.0269 531.93,151.2969 C554.36,154.5569 560.65,155.4869 582.93,151.2969 C592.11,149.5769 596.3754,148.2997 604.0854,144.8797" fill="none" id="Sistema-to-DB-3" style="stroke:#181818;stroke-width:1;"/><polygon fill="#181818" points="609.57,142.4469,599.7211,142.4398,604.9995,144.4743,602.965,149.7526,609.57,142.4469" style="stroke:#181818;stroke-width:1;"/><text fill="#000000" font-family="sans-serif" font-size="10" lengthAdjust="spacing" textLength="49.4727" x="532.93" y="148.5791">15. Query</text></g><!--link Sistema to DB--><g class="link" data-entity-1="ent0004" data-entity-2="ent0005" data-link-type="dependency" data-source-line="33" id="lnk19"><path codeLine="33" d="M505.33,123.7969 C510.89,121.9269 516.78,120.2869 522.43,119.2969 C553.08,113.9469 562.17,112.0669 592.43,119.2969 C598.29,120.6969 598.997,120.5512 604.167,123.3112" fill="none" id="Sistema-to-DB-4" style="stroke:#181818;stroke-width:1;"/><polygon fill="#181818" points="609.46,126.1369,603.4043,118.3697,605.0492,123.7822,599.6368,125.427,609.46,126.1369" style="stroke:#181818;stroke-width:1;"/><text fill="#000000" font-family="sans-serif" font-size="10" lengthAdjust="spacing" textLength="43.6279" x="535.93" y="110.5791">17. Save</text></g><!--link Sistema to DB--><g class="link" data-entity-1="ent0004" data-entity-2="ent0005" data-link-type="dependency" data-source-line="40" id="lnk24"><path codeLine="40" d="M505.46,135.2969 C536.36,135.2969 579.37,135.2969 603.54,135.2969" fill="none" id="Sistema-to-DB-5" style="stroke:#181818;stroke-width:1;"/><polygon fill="#181818" points="609.54,135.2969,600.54,131.2969,604.54,135.2969,600.54,139.2969,609.54,135.2969" style="stroke:#181818;stroke-width:1;"/><text fill="#000000" font-family="sans-serif" font-size="10" lengthAdjust="spacing" textLength="68.9111" x="523.43" y="129.5791">22. Confirmar</text></g><!--link Bot to Sistema--><g class="link" data-entity-1="ent0003" data-entity-2="ent0004" data-link-type="dependency" data-source-line="32" id="lnk18"><path codeLine="32" d="M199.77,125.3469 C220.22,113.0769 257.44,92.9069 292.5,85.1969 C320.72,78.9969 329.17,79.5469 357.5,85.1969 C391.05,91.8969 421.6088,105.3934 445.4088,117.5734" fill="none" id="Bot-to-Sistema" style="stroke:#181818;stroke-width:1;"/><polygon fill="#181818" points="450.75,120.3069,444.5605,112.6459,446.299,118.029,440.9159,119.7675,450.75,120.3069" style="stroke:#181818;stroke-width:1;"/><text fill="#000000" font-family="sans-serif" font-size="10" lengthAdjust="spacing" textLength="63.8135" x="293.5" y="86.7591">16. Reservar</text></g><!--link Bot to Operador--><g class="link" data-entity-1="ent0003" data-entity-2="ent0006" data-link-type="dependency" data-source-line="38" id="lnk22"><path codeLine="38" d="M199.83,135.2969 C221.99,135.2969 256.71,135.2969 285.02,135.2969" fill="none" id="Bot-to-Operador" style="stroke:#181818;stroke-width:1;"/><polygon fill="#181818" points="291.02,135.2969,282.02,131.2969,286.02,135.2969,282.02,139.2969,291.02,135.2969" style="stroke:#181818;stroke-width:1;"/><text fill="#000000" font-family="sans-serif" font-size="10" lengthAdjust="spacing" textLength="55.2539" x="217.93" y="129.5791">20. Escalar</text></g><!--link Operador to Sistema--><g class="link" data-entity-1="ent0006" data-entity-2="ent0004" data-link-type="dependency" data-source-line="39" id="lnk23"><path codeLine="39" d="M352.82,135.2969 C381.24,135.2969 417.03,135.2969 444.38,135.2969" fill="none" id="Operador-to-Sistema" style="stroke:#181818;stroke-width:1;"/><polygon fill="#181818" points="450.38,135.2969,441.38,131.2969,445.38,135.2969,441.38,139.2969,450.38,135.2969" style="stroke:#181818;stroke-width:1;"/><text fill="#000000" font-family="sans-serif" font-size="10" lengthAdjust="spacing" textLength="62.9492" x="370.73" y="129.5791">21. Val pago</text></g><?plantuml-src TL51JiCm4Bpx5Vi1h3eL57f0QXgG448LL73V9cvbIEnWEq7mBPx0nrYdTLIQSFDwTcPtPhtofOIbAN5ZBERgvri3SszArsYnWeMrvkFMQBzMNnAI8wIGMsnAtsDYmfZPlChSmxDhq2eJozJu-5mhvsM5iSpI-5hLqc9XB6C7CfnT1oBCGN2uqyf3RdJBmXSXiMaE2OT5gvmPygOS7joECNOO6f0i9U2SmnfRoOPY5noUv3iKw8qR2iuuP1qobBoAagU0eErlMYn7XeaaJ7EK8HaVypqDnbrkLTsTPKISd3msqdxswh63iCwBaxP5EoJE_er0NEupg74tagaWeqjJrJqntYrSOa9MNOub3Uo__-oKK1WlMEwrJtTAaY2jjyfM931oQ8fZTVyB?></g></svg>